<?xml version="1.0" standalone="no"?>
<!DOCTYPE svg PUBLIC "-//W3C//DTD SVG 20010904//EN"
 "http://www.w3.org/TR/2001/REC-SVG-20010904/DTD/svg10.dtd">
<svg version="1.0" xmlns="http://www.w3.org/2000/svg"
 width="272.000000pt" height="272.000000pt" viewBox="0 0 272.000000 272.000000"
 preserveAspectRatio="xMidYMid meet">

<g transform="translate(0.000000,272.000000) scale(0.100000,-0.100000)"
fill="#000000" stroke="none">
<path d="M1237 2509 c-99 -23 -221 -112 -253 -185 -21 -47 -26 -52 -70 -63
-51 -13 -107 -62 -126 -110 -50 -128 -62 -250 -33 -347 11 -37 17 -90 16 -144
-1 -81 11 -135 23 -100 2 8 7 42 10 76 9 101 22 114 65 69 13 -14 34 -28 47
-31 13 -3 24 -10 24 -14 0 -4 10 -11 23 -15 71 -21 94 -24 127 -14 67 20 64
18 46 38 -9 9 -13 20 -10 24 10 10 52 -15 57 -34 14 -53 63 5 79 93 l11 61
-51 49 -51 48 -94 0 c-81 0 -96 -3 -112 -20 -20 -22 -51 -28 -38 -7 4 6 8 14
9 17 0 3 4 13 8 23 5 9 4 23 -1 30 -33 41 -20 121 32 202 35 55 44 60 115 68
19 2 57 10 83 18 45 13 51 12 85 -7 20 -12 55 -22 77 -22 107 -4 183 -20 225
-48 23 -16 57 -37 74 -46 17 -9 50 -34 72 -55 38 -35 42 -43 48 -102 3 -36 15
-84 27 -108 11 -23 18 -46 15 -51 -3 -5 1 -20 8 -34 40 -77 51 -183 31 -298
-7 -41 -12 -76 -11 -76 0 -1 21 1 45 5 56 8 76 34 43 56 -28 20 -28 37 -1 61
20 18 21 18 34 1 21 -28 26 -6 24 95 -1 51 1 141 5 201 5 59 5 137 1 172 -13
127 -132 259 -390 437 -127 87 -233 114 -348 87z m-129 -730 c-2 -6 -7 -10
-11 -10 -4 1 -14 1 -22 1 -8 0 -15 5 -15 10 0 6 12 10 26 10 14 0 24 -5 22
-11z m822 -182 c0 -12 -34 -47 -45 -47 -10 0 -5 36 7 48 16 16 38 15 38 -1z"/>
<path d="M1440 1904 c-19 -8 -50 -35 -67 -59 -28 -37 -33 -53 -33 -100 0 -48
3 -55 19 -55 11 0 22 4 26 9 6 11 53 -30 48 -41 -2 -4 20 -19 48 -34 61 -30
96 -27 155 12 21 14 48 30 60 34 17 7 24 20 30 55 18 121 -60 196 -202 194
-27 0 -65 -7 -84 -15z m155 -144 c8 -12 -64 -13 -83 -1 -11 6 -10 11 3 24 15
15 19 15 45 2 16 -8 32 -19 35 -25z m-110 -80 c3 -5 1 -10 -4 -10 -6 0 -11 5
-11 10 0 6 2 10 4 10 3 0 8 -4 11 -10z m42 -16 c-3 -3 -12 -4 -19 -1 -8 3 -5
6 6 6 11 1 17 -2 13 -5z"/>
<path d="M781 1513 c0 -10 4 -27 9 -38 7 -17 9 -15 9 12 1 17 -3 35 -9 38 -5
3 -10 -2 -9 -12z"/>
<path d="M1175 1470 c-4 -6 -16 -9 -28 -6 -22 6 -87 -38 -87 -60 0 -33 -112
-27 -133 7 -8 12 -23 19 -44 19 -18 0 -33 5 -33 10 0 6 -4 10 -10 10 -5 0 -10
-14 -10 -31 0 -17 -4 -28 -10 -24 -5 3 -10 15 -10 26 0 10 -4 19 -10 19 -18 0
-11 -26 26 -95 20 -37 44 -91 53 -120 10 -30 37 -85 60 -124 37 -60 45 -84 58
-175 l16 -106 -37 -84 c-46 -102 -93 -160 -144 -176 -73 -24 -392 -163 -392
-171 0 -14 162 -131 240 -173 74 -39 220 -93 348 -126 254 -67 578 -37 837 76
135 59 307 175 389 263 l30 31 -35 12 c-19 6 -88 38 -154 71 -108 54 -129 69
-215 156 -107 107 -145 172 -163 278 -9 54 -8 80 10 176 12 61 24 120 28 130
6 14 2 20 -14 24 -24 6 -29 33 -6 33 9 0 12 6 8 16 -4 11 -13 13 -33 9 -17 -4
-37 -1 -49 7 -15 9 -24 10 -29 2 -4 -6 -21 -14 -38 -17 -23 -4 -37 0 -59 19
-15 13 -30 24 -32 24 -2 0 -1 -20 3 -45 l6 -45 -51 0 c-41 0 -49 -3 -45 -15 7
-16 -13 -18 -56 -6 -14 4 -36 4 -49 -1 -15 -5 -28 -4 -37 3 -12 10 -9 16 17
35 27 19 35 21 57 11 19 -9 26 -9 29 0 3 7 18 28 34 49 16 20 29 43 29 50 0
17 -17 27 -25 14 -9 -14 -38 -13 -54 3 -7 7 -39 12 -74 13 -34 0 -72 4 -83 8
-14 5 -24 3 -29 -4z m-61 -104 c-6 -39 -10 -46 -29 -46 -36 0 -39 38 -8 83 32
47 46 33 37 -37z m56 -60 c0 -3 -4 -8 -10 -11 -5 -3 -10 -1 -10 4 0 6 5 11 10
11 6 0 10 -2 10 -4z m-160 -108 c0 -10 -4 -18 -9 -18 -11 0 -21 25 -21 53 0
20 0 20 15 1 8 -10 15 -27 15 -36z m350 22 c10 -6 12 -12 4 -20 -16 -16 -73
-30 -79 -19 -4 5 -18 9 -33 9 -15 0 -34 5 -42 10 -13 9 -13 11 0 20 19 12 130
13 150 0z m200 -10 c0 -5 -4 -10 -10 -10 -5 0 -10 5 -10 10 0 6 5 10 10 10 6
0 10 -4 10 -10z m-41 -20 c14 0 6 -145 -9 -164 -54 -67 -120 -109 -120 -76 0
5 -3 9 -7 8 -5 -1 -26 4 -47 11 -28 10 -65 12 -127 7 l-88 -7 -19 38 c-11 21
-22 50 -26 65 -8 34 -32 59 -51 52 -17 -7 -19 9 -5 36 8 16 15 17 52 7 24 -6
65 -25 92 -44 64 -44 141 -47 201 -7 22 15 45 32 50 39 16 19 69 45 83 40 8
-3 17 -5 21 -5z m-294 -849 c3 -5 -5 -25 -18 -44 -13 -19 -30 -49 -37 -66 -7
-17 -16 -31 -21 -31 -8 0 -34 80 -27 84 2 1 20 16 41 34 39 34 52 38 62 23z"/>
</g>
</svg>
